# xmcd
#
# Track frame offsets: 
#        150
#        15132
#        24732
#        40507
#        53100
#        66425
#        82505
#        95070
#        103382
#        118455
#        132860
#        145782
#        159540
#        170707
#        183362
#        196950
#        208012
#        218082
#
# Disc length: 3069 seconds
#
# Revision: 0
# Processed by: cddbd v1.5.2PL0 Copyright (c) Steve Scherf et al.
# Submitted via: ExactAudioCopy v0.99pb4
#
DISCID=fc0bfb12
DTITLE=鄧麗君 - 鄧麗君特別精選 Vol. 1
DYEAR=1991
DGENRE=國語流行曲
TTITLE0=何可知道我愛誰
TTITLE1=路邊的野花不要採
TTITLE2=千言萬語
TTITLE3=海韻
TTITLE4=我怎能離開你
TTITLE5=我沒有騙你
TTITLE6=美酒加咖啡
TTITLE7=又是一個下雨天
TTITLE8=為君愁
TTITLE9=舊夢何處尋
TTITLE10=後悔愛上你
TTITLE11=山南山北走一回
TTITLE12=小村的故事
TTITLE13=愛的你呀何處尋
TTITLE14=少年愛姑娘
TTITLE15=向日葵
TTITLE16=情花
TTITLE17=娜奴娃情歌
EXTD=
EXTT0=
EXTT1=
EXTT2=
EXTT3=
EXTT4=
EXTT5=
EXTT6=
EXTT7=
EXTT8=
EXTT9=
EXTT10=
EXTT11=
EXTT12=
EXTT13=
EXTT14=
EXTT15=
EXTT16=
EXTT17=
PLAYORDER=
